# AST/ASF file generated using VICON BodyLanguage
# -----------------------------------------------
:version 1.10
:name VICON
:units
  mass 1.0
  length 0.45
  angle deg
:documentation
   .ast/.asf automatically generated from VICON data using
   VICON BodyBuilder and BodyLanguage model FoxedUp or BRILLIANT.MOD
:root
   order TX TY TZ RX RY RZ
   axis XYZ
   position 0 0 0  
   orientation 0 0 0 
:bonedata
  begin
     id 1 
     name lhipjoint
     direction 0.528046 -0.759594 0.379717 
     length 2.39752 
     axis 0 0 0  XYZ
  end
  begin
     id 2 
     name lfemur
     direction 0.34202 -0.939693 0  
     length 7.31175  
     axis 0 0 20  XYZ
    dof rx ry rz
    limits (-160.0 20.0)
           (-70.0 70.0)
           (-60.0 70.0)
  end
  begin
     id 3 
     name ltibia
     direction 0.34202 -0.939693 0   
     length 7.52482   
     axis 0 0 20   XYZ
    dof rx
    limits (-10.0 170.0)
  end
  begin
     id 4 
     name lfoot
     direction 0.0675379 -0.185559 0.980309   
     length 2.00961   
     axis -90 7.62852e-016 20   XYZ
    dof rx rz
    limits (-45.0 90.0)
           (-70.0 20.0)
  end
  begin
     id 5 
     name ltoes
     direction 1.5352e-011 -4.22286e-011 1   
     length 1.01383   
     axis -90 7.62852e-016 20   XYZ
    dof rx
    limits (-90.0 20.0)
  end
  begin
     id 6 
     name rhipjoint
     direction -0.510274 -0.769251 0.384544   
     length 2.36742  
     axis 0 0 0  XYZ 
  end
  begin
     id 7 
     name rfemur
     direction -0.34202 -0.939693 0   
     length 7.45325   
     axis 0 0 -20   XYZ
    dof rx ry rz
    limits (-160.0 20.0)
           (-70.0 70.0)
           (-70.0 60.0)
  end
  begin
     id 8 
     name rtibia
     direction -0.34202 -0.939693 0   
     length 7.49587   
     axis 0 0 -20   XYZ
    dof rx
    limits (-10.0 170.0)
 end
 begin
     id 9 
     name rfoot
     direction -0.106475 -0.292536 0.950308   
     length 2.20898  
     axis -90 -7.62852e-016 -20   XYZ
    dof rx rz
    limits (-45.0 90.0)
           (-20.0 70.0)
  end
  begin
     id 10 
     name rtoes
     direction -1.53597e-011 -4.22023e-011 1   
     length 1.10065   
     axis -90 -7.62852e-016 -20   XYZ
    dof rx
    limits (-90.0 20.0)
  end
  begin
     id 11 
     name lowerback
     direction 0.0260024 0.998026 -0.0571652   
     length 2.11214   
     axis 0 0 0   XYZ
    dof rx ry rz
    limits (-20.0 45.0)
           (-30.0 30.0)
           (-30.0 30.0)
  end
  begin
     id 12 
     name upperback
     direction 0.0216202 0.999542 -0.0211766   
     length 2.11689   
     axis 0 0 0   XYZ
    dof rx ry rz
    limits (-20.0 45.0)
           (-30.0 30.0)
           (-30.0 30.0)
  end
  begin
     id 13 
     name thorax
     direction 0.00883312 0.999944 0.00589057   
     length 2.11821   
     axis 0 0 0   XYZ
    dof rx ry rz
    limits (-20.0 45.0)
           (-30.0 30.0)
           (-30.0 30.0)
  end
  begin
     id 14 
     name lowerneck
     direction -0.059386 0.994433 0.0870401   
     length 1.81176   
     axis 0 0 0   XYZ
    dof rx ry rz
    limits (-20.0 45.0)
           (-30.0 30.0)
           (-30.0 30.0)
  end
  begin
     id 15 
     name upperneck
     direction 0.0506457 0.97328 -0.223967   
     length 1.82382   
     axis 0 0 0   XYZ
    dof rx ry rz
    limits (-20.0 45.0)
           (-30.0 30.0)
           (-30.0 30.0)
  end
  begin
     id 16
     name head
     direction 0.0205902 0.996147 -0.0852487  
     length 1.84805  
     axis 0 0 0   XYZ
    dof rx ry rz
    limits (-20.0 45.0)
           (-30.0 30.0)
           (-30.0 30.0)
  end
  begin
     id 17 
     name lclavicle
     direction 0.949493 0.303881 -0.0782325  
     length 3.60584  
     axis 0 0 0   XYZ
    dof ry rz
    limits (-20.0 10.0)
           (0.0 20.0)
  end
  begin
     id 18 
     name lhumerus
     direction 1 -4.48965e-011 1.48782e-027   
     length 4.95681   
     axis 180 -30 -90   XYZ
    dof rx ry rz
    limits (-60.0 90.0)
           (-90.0 90.0)
           (-90.0 90.0)
  end
  begin
     id 19
     name lradius
     direction 1 -4.48952e-011 2.06528e-027   
     length 3.40915   
     axis 180 -30 -90   XYZ
    dof rx
    limits (-10.0 170.0)
  end
  begin
     id 20
     name lwrist
     direction 1 -4.48964e-011 1.28021e-027   
     length 1.70457   
     axis -1.61767e-015 90 90   XYZ
    dof ry
    limits (-180.0 0.0)
 end
  begin
     id 21 
     name lhand
     direction 1 -4.49094e-011 2.54887e-027   
     length 0.616403   
     axis -1.63363e-015 90 90   XYZ
    dof rx rz
    limits (-90.0 90.0)
           (-45.0 45.0)
  end
  begin
     id 22 
     name lfingers
     direction 1 -4.49002e-011 5.11407e-027   
     length 0.49696   
     axis -3.26723e-015 90 90   XYZ
    dof rx
    limits (0.0 90.0)
  end
  begin
     id 23
     name lthumb
     direction 0.707107 -6.34998e-011 0.707107   
     length 0.713539   
     axis -90 45 -2.25915e-014   XYZ
    dof rx rz
    limits (-45.0 45.0)
           (-45.0 45.0)
  end
  begin
     id 24 
     name rclavicle
     direction -0.937751 0.334612 -0.0930482   
     length 3.46287  
     axis 0 0 0   XYZ 
    dof ry rz
    limits (-10.0 20.0)
           (-20.0 0.0)
  end
  begin
     id 25 
     name rhumerus
     direction -1 -4.48962e-011 3.59972e-027  
     length 5.352   
     axis 180 30 90   XYZ
    dof rx ry rz
    limits (-90.0 60.0)
           (-90.0 90.0)
           (-90.0 90.0)
  end
  begin
     id 26 
     name rradius
     direction -1 -4.48987e-011 -3.76925e-027   
     length 3.43721   
     axis 180 30 90   XYZ
    dof rx
    limits (-10.0 170.0)
  end
  begin
     id 27 
     name rwrist
     direction -1 -4.48943e-011 1.28112e-027   
     length 1.7186   
     axis -1.61767e-015 -90 -90   XYZ
    dof ry
    limits (-180.0 0.0)
  end
  begin
     id 28
     name rhand
     direction -1 -4.49027e-011 2.55483e-027   
     length 0.72009   
     axis -1.63363e-015 -90 -90   XYZ
    dof rx rz
    limits (-90.0 90.0)
           (-45.0 45.0)
  end
  begin
     id 29
     name rfingers
     direction -1 -4.48827e-011 5.14506e-027   
     length 0.580555   
     axis -3.26723e-015 -90 -90   XYZ
    dof rx
    limits (0.0 90.0)
  end
  begin
     id 30
     name rthumb
     direction -0.707107 -6.34936e-011 0.707107   
     length 0.833564   
     axis -90 -45 2.25915e-014   XYZ
    dof rx rz
    limits (-45.0 45.0)
           (-45.0 45.0)
  end
:hierarchy
  begin
    root lhipjoint rhipjoint lowerback
    lhipjoint lfemur
    lfemur ltibia
    ltibia lfoot
    lfoot ltoes
    rhipjoint rfemur
    rfemur rtibia
    rtibia rfoot
    rfoot rtoes
    lowerback upperback
    upperback thorax
    thorax lowerneck lclavicle rclavicle
    lowerneck upperneck
    upperneck head
    lclavicle lhumerus
    lhumerus lradius
    lradius lwrist
    lwrist lhand lthumb
    lhand lfingers
    rclavicle rhumerus
    rhumerus rradius
    rradius rwrist
    rwrist rhand rthumb
    rhand rfingers
  end

#!OML:ASF H:\Terrain\Patient Classification 1\Terrain2\Thursday\justin.ASF
:FULLY-SPECIFIED
:DEGREES
944
root 21.5857 17.4544 -10.7933 89.1096 -82.1712 -453.118
lowerback 7.86626 0.735401 5.95228
upperback 3.82145 1.20568 4.98389
thorax -0.418331 0.526878 1.72126
lowerneck -12.2315 -0.412704 -9.80266
upperneck 39.3084 -0.993844 3.55227
head 16.1434 -1.98184 2.97931
rclavicle 1.20265e-014 4.21423e-014
rhumerus -28.5889 -8.48871 -79.0861
rradius 28.8619
rwrist -11.1892
rhand -21.4959 10.5875
rfingers 7.12502
rthumb 4.8955 -19.3359
lclavicle 1.20265e-014 4.21423e-014
lhumerus -31.5482 9.22187 83.6623
lradius 33.5597
lwrist 3.14738
lhand -18.2234 21.6188
lfingers 7.12502
lthumb 8.0547 51.4453
rfemur -0.204202 -5.39327 32.2274
rtibia 23.7875
rfoot -18.1883 2.29902
rtoes 23.1284
lfemur -32.2222 4.25861 -9.88821
ltibia 68.8961
lfoot 7.0991 -10.8665
ltoes 9.33765
945
root 21.5471 17.4791 -10.8005 89.3247 -81.7011 -453.537
lowerback 8.07174 0.769076 6.58494
upperback 3.87904 1.29731 5.08282
thorax -0.453627 0.57263 1.46428
lowerneck -12.2461 -0.455817 -9.85559
upperneck 39.3273 -1.114 3.73562
head 16.1685 -2.01488 3.05121
rclavicle -1.21259e-014 -4.69132e-014
rhumerus -28.681 -8.48517 -79.116
rradius 28.7381
rwrist -11.3266
rhand -21.386 10.8175
rfingers 7.12502
rthumb 5.00169 -19.1034
lclavicle -1.21259e-014 -4.69132e-014
lhumerus -31.809 9.85421 83.5705
lradius 32.9338
lwrist 2.14372
lhand -18.2883 22.4205
lfingers 7.12502
lthumb 7.99214 52.2494
rfemur 0.674589 -5.6002 32.7288
rtibia 22.7457
rfoot -17.6906 2.57451
rtoes 23.5612
lfemur -33.5421 4.60231 -9.32199
ltibia 71.5844
lfoot 5.54252 -10.8365
ltoes 9.3679
946
root 21.5108 17.4849 -10.8068 89.4006 -81.5992 -453.739
lowerback 8.17465 0.766719 6.80276
upperback 3.94851 1.30808 5.1063
thorax -0.431396 0.578619 1.36675
lowerneck -12.1816 -0.452796 -9.95295
upperneck 39.2628 -1.14448 3.891
head 16.1221 -2.01742 3.131
rclavicle -1.8487e-014 -4.77083e-014
rhumerus -28.6241 -8.41858 -79.1719
rradius 28.5175
rwrist -11.5647
rhand -21.2956 10.8297
rfingers 7.12502
rthumb 5.08889 -19.0892
lclavicle -1.8487e-014 -4.77083e-014
lhumerus -32.0607 10.2247 83.4602
lradius 32.2451
lwrist 1.58965
lhand -19.8085 23.745
lfingers 7.12502
lthumb 6.52473 53.6245
rfemur 1.35205 -5.49036 32.8761
rtibia 21.9847
rfoot -17.7194 2.42431
rtoes 22.65
lfemur -34.9503 4.93249 -9.24183
ltibia 74.2136
lfoot 2.90257 -10.7979
ltoes 2.51024
947
root 21.4688 17.5203 -10.8157 90.8662 -81.9622 -455.321
lowerback 8.23595 0.787462 6.53514
upperback 4.08182 1.31262 4.96875
thorax -0.331391 0.583686 1.37196
lowerneck -12.3129 -0.423231 -10.0045
upperneck 39.3298 -1.09624 3.9551
head 16.1851 -1.99893 3.17917
rclavicle 2.06736e-014 3.57812e-014
rhumerus -28.4449 -8.36323 -79.3608
rradius 28.3326
rwrist -11.6321
rhand -21.3075 10.518
rfingers 7.12502
rthumb 5.07748 -19.4011
lclavicle 2.06736e-014 3.57812e-014
lhumerus -32.1394 10.5666 83.2217
lradius 31.3306
lwrist 0.904208
lhand -20.985 23.5056
lfingers 7.12502
lthumb 5.38885 53.4171
rfemur 2.18398 -4.71894 32.5044
rtibia 21.1094
rfoot -17.6919 2.38729
rtoes 24.5579
lfemur -36.182 5.16882 -9.6849
ltibia 76.6458
lfoot 0.582504 -9.80455
ltoes -2.85396
948
root 21.4247 17.5588 -10.8247 92.1716 -82.2119 -456.728
lowerback 8.32235 0.881832 6.42737
upperback 4.19316 1.4303 4.82993
thorax -0.260536 0.645943 1.27772
lowerneck -12.5069 -0.492617 -9.98121
upperneck 39.4358 -1.23428 4.07224
head 16.3028 -2.03958 3.20877
rclavicle 1.58034e-014 4.69132e-014
rhumerus -28.4055 -8.51985 -79.4913
rradius 28.2437
rwrist -11.5109
rhand -21.3587 10.2829
rfingers 7.12502
rthumb 5.02804 -19.6375
lclavicle 1.58034e-014 4.69132e-014
lhumerus -32.0582 10.5653 83.0978
lradius 30.3724
lwrist 0.589701
lhand -21.7929 22.0841
lfingers 7.12502
lthumb 4.60878 52.014
rfemur 2.87261 -4.28388 32.2253
rtibia 20.4324
rfoot -17.303 2.57854
rtoes 27.2648
lfemur -37.4843 5.37738 -9.9926
ltibia 79.0521
lfoot -0.478405 -8.46916
ltoes 0.00475973
